<?xml version="1.0" encoding="UTF-8" standalone="no"?>
<svg
   version="1.1"
   width="500"
   height="500"
   viewBox="0 0 500 500"
   xml:space="preserve"
   id="svg72"
   sodipodi:docname="Atlas Logo.svg"
   inkscape:version="1.1.1 (3bf5ae0d25, 2021-09-20)"
   xmlns:inkscape="http://www.inkscape.org/namespaces/inkscape"
   xmlns:sodipodi="http://sodipodi.sourceforge.net/DTD/sodipodi-0.dtd"
   xmlns="http://www.w3.org/2000/svg"
   xmlns:svg="http://www.w3.org/2000/svg"><sodipodi:namedview
   id="namedview74"
   pagecolor="#ffffff"
   bordercolor="#666666"
   borderopacity="1.0"
   inkscape:pageshadow="2"
   inkscape:pageopacity="0.0"
   inkscape:pagecheckerboard="0"
   showgrid="false"
   inkscape:zoom="0.145664"
   inkscape:cx="192.2232"
   inkscape:cy="147.59996"
   inkscape:window-width="1920"
   inkscape:window-height="1027"
   inkscape:window-x="-8"
   inkscape:window-y="-8"
   inkscape:window-maximized="1"
   inkscape:current-layer="svg72" />
<desc
   id="desc2">Created with Fabric.js 4.6.0</desc>
<defs
   id="defs4">
</defs>
<g
   transform="matrix(5.27 0 0 5.27 250.32 301.26)"
   id="g187qialmyi59ZV3Iyfp7">
<path
   style="stroke: rgb(176,228,255); stroke-width: 0; stroke-dasharray: none; stroke-linecap: butt; stroke-dashoffset: 0; stroke-linejoin: miter; stroke-miterlimit: 4; fill: rgb(64,64,64); fill-rule: nonzero; opacity: 1;"
   vector-effect="non-scaling-stroke"
   transform=" translate(0, 0)"
   d="M 0 -34.53039 C 19.06077 -34.53039 34.53039 -19.060779999999998 34.53039 0 C 34.53039 19.06077 19.060779999999998 34.53039 0 34.53039 C -19.06077 34.53039 -34.53039 19.060779999999998 -34.53039 0 C -34.53039 -19.06077 -19.060779999999998 -34.53039 0 -34.53039 z"
   stroke-linecap="round"
   id="path6" />
</g>
<g
   transform="matrix(1.28 0 0 1.28 251.46 304)"
   id="XVF-Dz42sCpYPQOOxtfB6">
<path
   style="stroke: rgb(0,0,0); stroke-width: 1; stroke-dasharray: none; stroke-linecap: butt; stroke-dashoffset: 0; stroke-linejoin: miter; stroke-miterlimit: 4; fill: rgb(255,255,255); fill-opacity: 0; fill-rule: nonzero; opacity: 1;"
   vector-effect="non-scaling-stroke"
   transform=" translate(0, 0)"
   d="M 0 0"
   stroke-linecap="round"
   id="path9" />
</g>
<g
   transform="matrix(1.28 0 0 1.28 250.82 294.15)"
   id="EGNaBFW1yYAmqmB1Nv4iR">
<path
   style="stroke: rgb(0,0,0); stroke-width: 1; stroke-dasharray: none; stroke-linecap: butt; stroke-dashoffset: 0; stroke-linejoin: miter; stroke-miterlimit: 4; fill: rgb(255,255,255); fill-opacity: 0; fill-rule: nonzero; opacity: 1;"
   vector-effect="non-scaling-stroke"
   transform=" translate(0, 0)"
   d="M 0 0"
   stroke-linecap="round"
   id="path12" />
</g>
<g
   transform="matrix(1 0 0 1 250 453.21)"
   id="IXBjdHkXBLGCw4wTCDBEb">
<path
   style="stroke: rgb(0,0,0); stroke-width: 1; stroke-dasharray: none; stroke-linecap: butt; stroke-dashoffset: 0; stroke-linejoin: miter; stroke-miterlimit: 4; fill: rgb(255,255,255); fill-opacity: 0; fill-rule: nonzero; opacity: 1;"
   vector-effect="non-scaling-stroke"
   transform=" translate(0, 0)"
   d="M 0 0"
   stroke-linecap="round"
   id="path15" />
</g>
<g
   transform="matrix(-1.28 0 0 1.28 320.75 343.74)"
   id="_yZci4gra412Dg6_ObScm">
<path
   style="opacity:1;fill:#7a7a7a;fill-rule:nonzero;stroke:#555555;stroke-width:4;stroke-linecap:butt;stroke-linejoin:miter;stroke-miterlimit:4;stroke-dasharray:none;stroke-dashoffset:0"
   vector-effect="non-scaling-stroke"
   d="M 55.148483,29.099384 -55.21622,31.54144 -35.40383,-31.54144 h 8.98597"
   stroke-linecap="round"
   id="path18"
   sodipodi:nodetypes="cccc" />
</g>
<g
   transform="matrix(-1.28 0 0 1.28 311.34 336.68)"
   id="7_3oufYKJKgC7-fBRfQeY"
   style="stroke-width:1.18110236;stroke-miterlimit:4;stroke-dasharray:none">
<path
   style="stroke:rgb(85, 85, 85);stroke-width:1.18110236;stroke-dasharray:none;stroke-linecap:butt;stroke-dashoffset:0;stroke-linejoin:miter;stroke-miterlimit:4;fill:rgb(255, 255, 255);fill-rule:nonzero;opacity:1"
   vector-effect="non-scaling-stroke"
   transform=" translate(0, 0)"
   d="M 47.65423 34.13819 L 25.41357 27.68155 C 11.36267 23.60246 -3.4194700000000005 22.69887 -17.86258 25.03619 L -47.65423 29.85735 L -31.053549999999998 -34.138189999999994 L -27.00943 -34.138189999999994"
   stroke-linecap="round"
   id="path21" />
</g>
<g
   transform="matrix(1.28 0 0 1.28 178.36 344.84)"
   id="2PaNqTiIqTM3omlzt3M5q">
<path
   style="opacity:1;fill:#7a7a7a;fill-rule:nonzero;stroke:#555555;stroke-width:4;stroke-linecap:butt;stroke-linejoin:miter;stroke-miterlimit:4;stroke-dasharray:none;stroke-dashoffset:0"
   vector-effect="non-scaling-stroke"
   d="m 56.31513,28.240009 -111.8946,2.520181 19.81239,-63.08288 h 9.96009"
   stroke-linecap="round"
   id="path24"
   sodipodi:nodetypes="cccc" />
</g>
<g
   transform="matrix(1 0 0 1 250.5 167.69)"
   id="nVojMTZLeARBIDd2Z-6du"
   style="stroke-width:0.03779528;stroke-miterlimit:4;stroke-dasharray:none">
<path
   style="stroke:rgb(176, 228, 255);stroke-width:0.03779528;stroke-dasharray:none;stroke-linecap:butt;stroke-dashoffset:0;stroke-linejoin:miter;stroke-miterlimit:4;fill:rgb(0, 21, 255);fill-rule:nonzero;opacity:0.69"
   vector-effect="non-scaling-stroke"
   transform=" translate(0, 0)"
   d="M 45.25288 -75.94007 C 43.51181 -75.102 42.02621 -74.38232 40.99126 -73.87298000000001 C 36.89982 -71.85942000000001 31.773169999999997 -69.37857000000001 27.228129999999997 -67.17475000000002 C 23.69927 -65.46366000000002 21.234099999999998 -62.13056000000002 20.631289999999996 -58.25535000000002 L 19.171099999999996 -48.868450000000024 C 18.803119999999996 -46.50286000000003 17.214339999999996 -44.506930000000025 14.991529999999996 -43.61781000000003 L 12.704429999999995 -42.70297000000003 C 9.743289999999995 -41.51851000000003 7.801599999999995 -38.650580000000026 7.801599999999995 -35.46133000000003 L 7.801599999999995 -28.95038000000003 C 7.801599999999995 -25.702420000000032 10.434589999999995 -23.06942000000003 13.682559999999995 -23.06942000000003 L 25.545509999999993 -23.06942000000003 C 28.529189999999993 -23.06942000000003 31.384119999999992 -24.28489000000003 33.45213999999999 -26.435630000000028 L 36.93375999999999 -30.056510000000028 C 39.58371999999999 -32.812470000000026 42.96466999999999 -34.75557000000003 46.67996999999999 -35.65786000000003 C 50.76812999999999 -36.65070000000003 55.08281999999999 -35.99380000000003 58.69027999999999 -33.82932000000003 C 61.50145999999999 -32.14261000000003 63.846369999999986 -29.77987000000003 65.51173999999999 -26.955990000000032 L 70.57536999999999 -18.369830000000032 C 72.00835 -15.939990000000032 74.61909 -14.448730000000033 77.44 -14.448730000000033 C 79.66305 -14.448730000000033 82.31166999999999 -14.448730000000033 84.1765 -14.448730000000033 C 84.6066 -14.448730000000033 85.66507 -14.559670000000033 87.1708 -14.751010000000033 C 87.97772 -9.953740000000032 88.39779 -5.025740000000033 88.39779 -0.0002200000000325275 C 88.39779 18.705969999999965 82.57771 36.06105999999996 72.65077 50.35184999999996 C 70.44881 48.46060999999996 68.63246 47.182959999999966 67.69505 47.182959999999966 C 66.69207 47.182959999999966 65.98912999999999 47.182959999999966 65.14891 47.182959999999966 C 61.08252 47.182959999999966 57.26508 49.14164999999996 54.89353 52.444869999999966 L 52.87974 55.24978999999997 C 48.939029999999995 60.73863999999997 42.59572 63.993309999999965 35.83875 63.993309999999965 C 30.491269999999997 63.993219999999965 25.565839999999998 66.89798999999996 22.978309999999997 71.57774999999997 C 21.44092 74.35822999999996 19.75895 77.38380999999997 18.2354 79.95635999999996 C 15.343159999999997 84.83997999999995 15.985309999999998 83.60739999999996 15.65204 85.15857999999996 C 15.603769999999999 85.38323999999996 15.61947 86.04522999999996 15.705129999999999 87.00465999999996 C 10.60785 87.91983999999997 5.359379999999998 88.39756999999996 -1.7763568394002505e-15 88.39756999999996 C -48.79558 88.39756999999996 -88.39779 48.79535999999996 -88.39779 -0.0002200000000414093 C -88.39779 -23.46061000000004 -79.24341 -44.79587000000004 -64.31425 -60.62642000000004 C -63.61047 -60.12949000000004 -62.75062 -59.99411000000004 -61.70164 -60.45019000000004 C -59.454319999999996 -61.42729000000004 -55.84081 -62.75895000000004 -52.90885 -63.770780000000045 C -45.81552 -66.21872000000005 -38.36406 -67.46832000000005 -30.860210000000002 -67.46832000000005 L -25.58725 -67.46832000000005 C -24.10273 -67.46832000000005 -22.70484 -68.16726000000004 -21.814130000000002 -69.35488000000005 L -20.529560000000004 -71.06764000000005 C -19.038270000000004 -73.06195000000005 -16.664250000000003 -74.19873000000005 -14.175600000000003 -74.11019000000006 C -11.047700000000003 -73.99891000000007 -5.577170000000002 -73.67649000000006 -4.694560000000003 -74.36488000000006 C -3.9463800000000027 -74.94842000000006 -2.689440000000003 -75.92876000000005 -1.701840000000003 -76.69903000000005 C -0.4516200000000028 -77.67413000000005 0.2792799999999971 -79.17112000000004 0.2792799999999971 -80.75663000000004 L 0.2792799999999971 -87.86180000000004 L 0.2791799999999971 -88.39757000000004 C 16.708429999999996 -88.34669000000004 32.08739 -83.80646000000004 45.25288 -75.94006000000005 z M -80.12723 -36.83274 L -74.80924 -21.9058 C -74.80829 -21.90314 -74.80734 -21.90047 -74.80639000000001 -21.89781 z M -74.80639 -21.89781 L -73.23066999999999 -17.47497 L -78.13257999999999 -8.590269999999999 C -79.44099999999999 -6.218769999999998 -80.12723 -3.554429999999998 -80.12723 -0.8459299999999983 L -80.12723 6.879140000000001 C -80.12723 8.961170000000001 -79.36316 10.9708 -77.97994 12.52693 L -76.4617 14.23495 C -74.40653999999999 16.547 -71.46077 17.86985 -68.36734 17.86985 L -63.906009999999995 17.86985 C -60.752069999999996 17.86985 -58.032219999999995 20.08597 -57.395129999999995 23.1749 L -50.63826999999999 55.93542 C -50.19023999999999 58.10772 -49.18870999999999 60.12746 -47.730729999999994 61.79896 C -46.90416999999999 62.74658 -45.977669999999996 63.79184 -44.351369999999996 63.55951 C -41.97593 63.22017 -40.329679999999996 60.97769 -39.002199999999995 59.10222 C -38.27589999999999 58.07609 -37.88585 56.849900000000005 -37.88585 55.592740000000006 L -37.88585 47.554260000000006 C -37.88585 45.68273000000001 -37.03706 43.912180000000006 -35.57797 42.74013000000001 L -14.965250000000001 26.18237000000001 C -12.833090000000002 24.46965000000001 -11.59275 21.88236000000001 -11.59275 19.14749000000001 L -11.59275 3.7107800000000086 C -11.59275 1.5577400000000088 -12.559790000000001 -0.4814399999999912 -14.22692 -1.843869999999991 L -15.19158 -2.632219999999991 C -17.04551 -4.147309999999991 -19.36618 -4.9749599999999905 -21.760460000000002 -4.9749599999999905 L -28.71789 -4.9749599999999905 L -35.46763 -14.17785999999999 C -36.98777 -16.250489999999992 -39.40436 -17.47495999999999 -41.97469 -17.47495999999999 L -68.52704 -17.47495999999999 C -71.34451 -17.47495999999999 -73.85768 -19.24550999999999 -74.80639 -21.89780999999999 z M -44.97516 -26.13519 C -44.97516 -25.621480000000002 -44.55872 -25.20504 -44.045010000000005 -25.20504 L -41.59497 -25.20504 C -41.08126 -25.20504 -40.664820000000006 -25.621480000000002 -40.664820000000006 -26.13519 L -40.664820000000006 -28.585230000000003 C -40.664820000000006 -29.098940000000002 -41.08126000000001 -29.515380000000004 -41.59497 -29.515380000000004 L -44.045010000000005 -29.515380000000004 C -44.55872000000001 -29.515380000000004 -44.97516 -29.098940000000002 -44.97516 -28.585230000000003 z M -57.15965 -26.06058 C -57.15965 -25.585600000000003 -56.77461 -25.200560000000003 -56.29963 -25.200560000000003 L -54.14036 -25.200560000000003 C -53.66538 -25.200560000000003 -53.28034 -25.585600000000003 -53.28034 -26.06058 L -53.28034 -28.21985 C -53.28034 -28.69483 -53.66538 -29.07987 -54.14036 -29.07987 L -56.29963 -29.07987 C -56.77461 -29.07987 -57.15965 -28.69483 -57.15965 -28.21985 z M 32.44484 56.89151 C 32.44484 57.39048 32.84933 57.79497 33.3483 57.79497 L 35.85173 57.79497 C 36.3507 57.79497 36.755190000000006 57.39048 36.755190000000006 56.89151 L 36.755190000000006 54.388079999999995 C 36.755190000000006 53.889109999999995 36.3507 53.48461999999999 35.85173 53.48461999999999 L 33.3483 53.48461999999999 C 32.84933 53.48461999999999 32.44484 53.889109999999995 32.44484 54.388079999999995 z M 14.35035 64.50583 C 14.35035 64.97174 14.728050000000001 65.34944 15.19396 65.34944 L 17.38605 65.34944 C 17.851960000000002 65.34944 18.229660000000003 64.97174 18.229660000000003 64.50583 L 18.229660000000003 62.31374 C 18.229660000000003 61.84783 17.851960000000002 61.470130000000005 17.386050000000004 61.470130000000005 L 15.193960000000004 61.470130000000005 C 14.728050000000005 61.470130000000005 14.350350000000004 61.84783 14.350350000000004 62.31374 z M 48.22587 -20.20806 C 48.22587 -19.77066 48.58046 -19.41607 49.01786 -19.41607 L 50.88216 -19.41607 C 51.319559999999996 -19.41607 51.67415 -19.770660000000003 51.67415 -20.20806 L 51.67415 -22.07236 C 51.67415 -22.50976 51.319559999999996 -22.864349999999998 50.88216 -22.864349999999998 L 49.01786 -22.864349999999998 C 48.58046 -22.864349999999998 48.22587 -22.509759999999996 48.22587 -22.07236 z"
   stroke-linecap="round"
   id="path27" />
</g>
<g
   transform="matrix(1.28 0 0 1.28 251.46 293.51)"
   id="p79ox3PfFBLj_0OjdFL3h">
<path
   style="stroke: rgb(0,0,0); stroke-width: 1; stroke-dasharray: none; stroke-linecap: butt; stroke-dashoffset: 0; stroke-linejoin: miter; stroke-miterlimit: 4; fill: rgb(255,255,255); fill-opacity: 0; fill-rule: nonzero; opacity: 1;"
   vector-effect="non-scaling-stroke"
   transform=" translate(0, 0)"
   d="M 0 0"
   stroke-linecap="round"
   id="path30" />
</g>
<g
   transform="matrix(1.28 0 0 1.28 306.11 331.66)"
   id="_g0nwE-fkJZm1ZMPy_RZz"
   style="stroke-width:1.18110236;stroke-miterlimit:4;stroke-dasharray:none">
<path
   style="stroke:rgb(85, 85, 85);stroke-width:1.18110236;stroke-dasharray:none;stroke-linecap:butt;stroke-dashoffset:0;stroke-linejoin:miter;stroke-miterlimit:4;fill:rgb(255, 255, 255);fill-rule:nonzero;opacity:1"
   vector-effect="non-scaling-stroke"
   transform=" translate(0, 0)"
   d="M -43.08088 -22.55823 L -43.58088 38.04575 L -39.09753 35.32405 L -39.09753 35.32405 C -19.468629999999997 23.407980000000002 3.8522000000000034 19.113599999999998 26.43819 23.256079999999997 L 43.58088 26.400209999999998 L 28.875 -38.04575 L 8.30464 -38.04575 L 8.30464 -38.04575 C -5.956750000000001 -38.04575 -20.00701 -34.59999 -32.65022 -28.00177 z"
   stroke-linecap="round"
   id="path33" />
</g>
<g
   transform="matrix(1.28 0 0 1.28 188.44 336.68)"
   id="1lyM--LFmSZpjqO9lTNo2"
   style="stroke-width:1.18110236;stroke-miterlimit:4;stroke-dasharray:none">
<path
   style="stroke:rgb(85, 85, 85);stroke-width:1.18110236;stroke-dasharray:none;stroke-linecap:butt;stroke-dashoffset:0;stroke-linejoin:miter;stroke-miterlimit:4;fill:rgb(255, 255, 255);fill-rule:nonzero;opacity:1"
   vector-effect="non-scaling-stroke"
   d="M 48.10672 34.13819 L 18.611880000000003 28.60624 C 9.432950000000003 26.88467 0.058360000000003964 26.45521 -9.239529999999998 27.33034 L -48.106719999999996 30.98857 L -30.601059999999997 -34.13819000000001 L -26.556939999999997 -34.13819000000001"
   stroke-linecap="round"
   id="path36"
   transform=" translate(0, 0)" />
</g>
<g
   transform="matrix(-1.28 0 0 1.28 194.89 331.02)"
   id="kHTu0BcZhwGh6GvvYx7Z7"
   style="stroke-width:1.18110236;stroke-miterlimit:4;stroke-dasharray:none">
<path
   style="opacity:1;fill:#ffffff;fill-rule:nonzero;stroke:#555555;stroke-width:1.18110236;stroke-linecap:butt;stroke-linejoin:miter;stroke-miterlimit:4;stroke-dasharray:none;stroke-dashoffset:0"
   vector-effect="non-scaling-stroke"
   d="m -43.567591,-21.950168 0.499933,60.510233 4.073519,-2.46661 v 0 C -19.418696,24.240074 3.7805535,19.988973 26.248245,24.13825 L 43.58088,27.33919 28.877244,-38.04575 H -8.4354423 v 0 c -10.3382027,0 -20.3479147,3.65665 -28.2811347,10.331383 z"
   stroke-linecap="round"
   id="path39" />
</g>
<g
   transform="matrix(1.29 0 0 0.92 177.99 387.9)"
   id="KngllB9JZn4DhOgc4cQZ8">
<path
   style="stroke: rgb(85,85,85); stroke-width: 1; stroke-dasharray: none; stroke-linecap: butt; stroke-dashoffset: 0; stroke-linejoin: miter; stroke-miterlimit: 4; fill: rgb(85,85,85); fill-rule: nonzero; opacity: 1;"
   vector-effect="non-scaling-stroke"
   transform=" translate(0, 0)"
   d="M 56.1654 -7.5139 L -52.48245000000001 -7.5139 L -56.16541000000001 -4.3735 L -56.16541000000001 3.25828 L 46.160079999999994 3.25828 L 56.165389999999995 7.5139000000000005"
   stroke-linecap="round"
   id="path42" />
</g>
<g
   transform="matrix(-1.27 0 0 0.92 321.49 387.9)"
   id="u_5WDClfL-4KE9Pnj0IBu">
<path
   style="stroke: rgb(85,85,85); stroke-width: 1; stroke-dasharray: none; stroke-linecap: butt; stroke-dashoffset: 0; stroke-linejoin: miter; stroke-miterlimit: 4; fill: rgb(85,85,85); fill-rule: nonzero; opacity: 1;"
   vector-effect="non-scaling-stroke"
   transform=" translate(0, 0)"
   d="M 56.1654 -7.5139 L -52.48245000000001 -7.5139 L -56.16541000000001 -4.3735 L -56.16541000000001 3.25828 L 46.160079999999994 3.25828 L 56.165389999999995 7.5139000000000005"
   stroke-linecap="round"
   id="path45" />
</g>
<g
   transform="matrix(0.09 0 0 0.09 373.99 244.51)"
   id="f8QG-0OKB2CLS5CjVqp33">
<path
   style="stroke: rgb(176,228,255); stroke-width: 0; stroke-dasharray: none; stroke-linecap: butt; stroke-dashoffset: 0; stroke-linejoin: miter; stroke-miterlimit: 4; fill: rgb(255,255,255); fill-rule: nonzero; opacity: 1;"
   vector-effect="non-scaling-stroke"
   transform=" translate(0, 0)"
   d="M 0 -24.03846 C 13.26923 -24.03846 24.03846 -13.26923 24.03846 0 C 24.03846 13.26923 13.26923 24.03846 0 24.03846 C -13.26923 24.03846 -24.03846 13.26923 -24.03846 0 C -24.03846 -13.26923 -13.26923 -24.03846 0 -24.03846 z"
   stroke-linecap="round"
   id="path48" />
</g>
<g
   transform="matrix(0.09 0 0 0.09 327.01 246.68)"
   id="_xSTO18gBB4uxo89e-0WS">
<path
   style="stroke: rgb(176,228,255); stroke-width: 0; stroke-dasharray: none; stroke-linecap: butt; stroke-dashoffset: 0; stroke-linejoin: miter; stroke-miterlimit: 4; fill: rgb(255,178,178); fill-rule: nonzero; opacity: 1;"
   vector-effect="non-scaling-stroke"
   transform=" translate(0, 0)"
   d="M 0 -24.03846 C 13.26923 -24.03846 24.03846 -13.26923 24.03846 0 C 24.03846 13.26923 13.26923 24.03846 0 24.03846 C -13.26923 24.03846 -24.03846 13.26923 -24.03846 0 C -24.03846 -13.26923 -13.26923 -24.03846 0 -24.03846 z"
   stroke-linecap="round"
   id="path51" />
</g>
<g
   transform="matrix(0.1 0 0 0.1 369.43 286.86)"
   id="_v3fp9Cc_4sIg_DVW89Q1">
<path
   style="stroke: rgb(176,228,255); stroke-width: 0; stroke-dasharray: none; stroke-linecap: butt; stroke-dashoffset: 0; stroke-linejoin: miter; stroke-miterlimit: 4; fill: rgb(255,255,255); fill-rule: nonzero; opacity: 1;"
   vector-effect="non-scaling-stroke"
   transform=" translate(0, 0)"
   d="M 0 -24.03846 C 13.26923 -24.03846 24.03846 -13.26923 24.03846 0 C 24.03846 13.26923 13.26923 24.03846 0 24.03846 C -13.26923 24.03846 -24.03846 13.26923 -24.03846 0 C -24.03846 -13.26923 -13.26923 -24.03846 0 -24.03846 z"
   stroke-linecap="round"
   id="path54" />
</g>
<g
   transform="matrix(0.09 0 0 0.09 107.27 261.98)"
   id="NyNSKswNFNU1sxeD_u6LV">
<path
   style="stroke: rgb(176,228,255); stroke-width: 0; stroke-dasharray: none; stroke-linecap: butt; stroke-dashoffset: 0; stroke-linejoin: miter; stroke-miterlimit: 4; fill: rgb(255,255,255); fill-rule: nonzero; opacity: 1;"
   vector-effect="non-scaling-stroke"
   transform=" translate(0, 0)"
   d="M 0 -24.03846 C 13.26923 -24.03846 24.03846 -13.26923 24.03846 0 C 24.03846 13.26923 13.26923 24.03846 0 24.03846 C -13.26923 24.03846 -24.03846 13.26923 -24.03846 0 C -24.03846 -13.26923 -13.26923 -24.03846 0 -24.03846 z"
   stroke-linecap="round"
   id="path57" />
</g>
<g
   transform="matrix(0.11 0 0 0.11 142.72 209.46)"
   id="qXS1eoNHU9-C80bm376-b">
<path
   style="stroke: rgb(176,228,255); stroke-width: 0; stroke-dasharray: none; stroke-linecap: butt; stroke-dashoffset: 0; stroke-linejoin: miter; stroke-miterlimit: 4; fill: rgb(157,236,255); fill-rule: nonzero; opacity: 1;"
   vector-effect="non-scaling-stroke"
   transform=" translate(0, 0)"
   d="M 0 -24.03846 C 13.26923 -24.03846 24.03846 -13.26923 24.03846 0 C 24.03846 13.26923 13.26923 24.03846 0 24.03846 C -13.26923 24.03846 -24.03846 13.26923 -24.03846 0 C -24.03846 -13.26923 -13.26923 -24.03846 0 -24.03846 z"
   stroke-linecap="round"
   id="path60" />
</g>
<g
   transform="matrix(0.12 0 0 0.12 355.44 187.77)"
   id="HzsIPfjvRP2jNUoamk8Ip">
<path
   style="stroke: rgb(176,228,255); stroke-width: 0; stroke-dasharray: none; stroke-linecap: butt; stroke-dashoffset: 0; stroke-linejoin: miter; stroke-miterlimit: 4; fill: rgb(250,255,193); fill-rule: nonzero; opacity: 1;"
   vector-effect="non-scaling-stroke"
   transform=" translate(0, 0)"
   d="M 0 -24.03846 C 13.26923 -24.03846 24.03846 -13.26923 24.03846 0 C 24.03846 13.26923 13.26923 24.03846 0 24.03846 C -13.26923 24.03846 -24.03846 13.26923 -24.03846 0 C -24.03846 -13.26923 -13.26923 -24.03846 0 -24.03846 z"
   stroke-linecap="round"
   id="path63" />
</g>
<g
   transform="matrix(1 0 0 1 250.5 167.69)"
   id="tzSJme-58qAYnF1za_6qK"
   style="stroke-width:1.51181102;stroke-miterlimit:4;stroke-dasharray:none">
<path
   style="stroke:rgb(176, 228, 255);stroke-width:1.51181102;stroke-dasharray:none;stroke-linecap:butt;stroke-dashoffset:0;stroke-linejoin:miter;stroke-miterlimit:4;fill:rgb(41, 233, 246);fill-rule:nonzero;opacity:0.69"
   vector-effect="non-scaling-stroke"
   transform=" translate(-88.4, -88.4)"
   d="M 133.65068 12.45774 C 133.65068 12.45774 133.65067 12.45774 133.65067 12.45773 L 133.65068 12.45773 z M 129.38906 14.52482 C 125.29762 16.53838 120.17097 19.01923 115.62593 21.22305 C 112.09707 22.93414 109.6319 26.26724 109.02909 30.14245 L 107.5689 39.52935 C 107.20092 41.89494 105.61214 43.89087 103.38933 44.77999 L 101.10223 45.694829999999996 C 98.14109 46.87929 96.19940000000001 49.74722 96.19940000000001 52.93647 L 96.19940000000001 59.44742 C 96.19940000000001 62.69538 98.83239000000002 65.32838 102.08036000000001 65.32838 L 113.94331000000001 65.32838 C 116.92699000000002 65.32838 119.78192000000001 64.11291 121.84994 61.96216999999999 L 125.33156000000001 58.341289999999994 C 127.98152000000002 55.58532999999999 131.36247 53.64222999999999 135.07777000000002 52.73993999999999 C 139.16593 51.74709999999999 143.48062000000002 52.40399999999999 147.08808000000002 54.56847999999999 C 149.89926000000003 56.255189999999985 152.24417000000003 58.61792999999999 153.90954000000002 61.44180999999999 L 158.97317 70.02796999999998 C 160.40615 72.45780999999998 163.01689000000002 73.94906999999998 165.83780000000002 73.94906999999998 C 168.06085000000002 73.94906999999998 170.70947 73.94906999999998 172.57430000000002 73.94906999999998 C 173.00440000000003 73.94906999999998 174.06285000000003 73.83812999999998 175.56856000000002 73.64678999999998 C 171.1954 47.64795999999998 155.46008 25.488999999999983 133.65048000000002 12.45780999999998 C 131.90949 13.29583999999998 130.42397000000003 14.01547999999998 129.38906000000003 14.524809999999981 z M 175.5686 73.6468 C 176.37552 78.44407 176.79559 83.37207 176.79559 88.39759 C 176.79559 107.10378 170.97551 124.45886999999999 161.04857 138.74966999999998 C 158.84661 136.85842999999997 157.03026 135.58077999999998 156.09285 135.58077999999998 C 155.08987 135.58077999999998 154.38693 135.58077999999998 153.54671 135.58077999999998 C 149.48031999999998 135.58077999999998 145.66288 137.53946999999997 143.29133 140.84268999999998 L 141.27754 143.64761 C 137.33683 149.13646 130.99352 152.39112999999998 124.23655 152.39112999999998 C 118.88906999999999 152.39103999999998 113.96364 155.29581 111.37611 159.97556999999998 C 109.83872 162.75605 108.15675 165.78162999999998 106.6332 168.35417999999999 C 103.74096 173.2378 104.38311 172.00521999999998 104.04984 173.5564 C 104.00157 173.78106 104.01727 174.44305 104.10293 175.40248 C 99.00565 176.31766 93.75718 176.79539 88.3978 176.79539 C 39.60222 176.79539 0.000010000000003174137 137.19317999999998 0.000010000000003174137 88.39759 C 0.000010000000003174137 64.93719999999999 9.154390000000003 43.601929999999996 24.083550000000002 27.771379999999994 C 24.08359 27.771409999999992 24.083630000000003 27.771429999999995 24.083660000000002 27.771459999999994 C 9.154420000000002 43.602019999999996 3.552713678800501e-15 64.93733999999999 3.552713678800501e-15 88.39779999999999 C 3.552713678800501e-15 137.19339 39.60221 176.79559999999998 88.39779 176.79559999999998 C 137.19337000000002 176.79559999999998 176.79558 137.19338999999997 176.79558 88.39779999999998 C 176.79558 83.37220999999998 176.3755 78.44413999999998 175.56856 73.64679999999997 C 175.56857 73.64679999999997 175.56859 73.64679999999997 175.5686 73.64679999999997 z M 26.69615 27.94761 C 28.943469999999998 26.97051 32.556979999999996 25.63885 35.48894 24.62702 C 42.58227 22.179080000000003 50.03373 20.92948 57.53758 20.92948 L 62.810539999999996 20.92948 C 64.29505999999999 20.92948 65.69295 20.23054 66.58366 19.042920000000002 L 67.86823 17.330160000000003 C 69.35952 15.335850000000002 71.73353999999999 14.199070000000003 74.22219 14.287610000000003 C 77.35009 14.398890000000003 82.82061999999999 14.721310000000003 83.70322999999999 14.032920000000003 C 84.45141 13.449380000000003 85.70835 12.469040000000003 86.69595 11.698770000000003 C 87.94617 10.723670000000004 88.67707 9.226680000000004 88.67707 7.641170000000003 L 88.67707 0.5360000000000031 L 88.67697 0.0004300000000031501 C 88.58394 0.00014000000000315008 88.49088 3.150095202048009e-15 88.39778 3.150095202048009e-15 C 63.06265 3.150095202048009e-15 40.205859999999994 10.675910000000004 24.08364999999999 27.771460000000005 C 24.78740999999999 28.268320000000006 25.64721999999999 28.403660000000006 26.696149999999992 27.947610000000005 z M 88.67698 0.00023 C 105.10623 0.05111 120.48518 4.59134 133.65067 12.45773 C 133.65061 12.45776 133.65054999999998 12.45779 133.65048 12.45782 C 120.48503999999998 4.5915 105.10614999999999 0.05130999999999908 88.67697999999999 0.0004299999999997084 z M 8.27056 51.56507 L 13.58855 66.49201 C 13.5895 66.49467 13.590449999999999 66.49734 13.5914 66.5 z M 13.5914 66.5 L 15.16712 70.92284 L 10.26521 79.80753999999999 C 8.95679 82.17903999999999 8.27056 84.84338 8.27056 87.55187999999998 L 8.27056 95.27694999999999 C 8.27056 97.35897999999999 9.03463 99.36860999999999 10.41785 100.92473999999999 L 11.93609 102.63275999999999 C 13.99125 104.94480999999999 16.93702 106.26765999999999 20.030450000000002 106.26765999999999 L 24.491780000000002 106.26765999999999 C 27.64572 106.26765999999999 30.36557 108.48378 31.002660000000002 111.57270999999999 L 37.75952 144.33323 C 38.207550000000005 146.50553 39.20908 148.52526999999998 40.66706 150.19677 C 41.49362 151.14439 42.42012 152.18965 44.04642 151.95731999999998 C 46.421859999999995 151.61798 48.06811 149.3755 49.39559 147.50002999999998 C 50.12189 146.4739 50.511939999999996 145.24770999999998 50.511939999999996 143.99054999999998 L 50.511939999999996 135.95207 C 50.511939999999996 134.08053999999998 51.36073 132.30999 52.81981999999999 131.13794 L 73.43253999999999 114.58017999999998 C 75.56469999999999 112.86745999999998 76.80503999999999 110.28016999999998 76.80503999999999 107.54529999999998 L 76.80503999999999 92.10858999999998 C 76.80503999999999 89.95554999999997 75.838 87.91636999999997 74.17087 86.55393999999998 L 73.20621 85.76558999999999 C 71.35228 84.25049999999999 69.03161 83.42284999999998 66.63732999999999 83.42284999999998 L 59.67989999999999 83.42284999999998 L 52.93015999999999 74.21994999999998 C 51.41001999999999 72.14731999999998 48.99342999999999 70.92284999999998 46.423099999999984 70.92284999999998 L 19.870749999999983 70.92284999999998 C 17.053279999999983 70.92284999999998 14.540109999999984 69.15229999999998 13.591399999999982 66.49999999999999 z M 43.42263 62.26262 C 43.42263 62.77633 43.83907 63.192769999999996 44.352779999999996 63.192769999999996 L 46.80282 63.192769999999996 C 47.31653 63.192769999999996 47.732969999999995 62.776329999999994 47.732969999999995 62.26262 L 47.732969999999995 59.81258 C 47.732969999999995 59.298869999999994 47.31652999999999 58.88243 46.80282 58.88243 L 44.352779999999996 58.88243 C 43.83906999999999 58.88243 43.42263 59.29887 43.42263 59.81258 z M 31.23814 62.33723 C 31.23814 62.81221 31.62318 63.19725 32.09816 63.19725 L 34.25743 63.19725 C 34.73241 63.19725 35.11745 62.81221 35.11745 62.33723 L 35.11745 60.17796 C 35.11745 59.70298 34.73241 59.31794 34.25743 59.31794 L 32.09816 59.31794 C 31.62318 59.31794 31.23814 59.70298 31.23814 60.17796 z M 120.84264 145.28933 C 120.84264 145.78830000000002 121.24713 146.19279 121.7461 146.19279 L 124.24953 146.19279 C 124.74849999999999 146.19279 125.15298999999999 145.7883 125.15298999999999 145.28933 L 125.15298999999999 142.7859 C 125.15298999999999 142.28692999999998 124.74849999999999 141.88244 124.24953 141.88244 L 121.7461 141.88244 C 121.24713 141.88244 120.84264 142.28693 120.84264 142.7859 z M 102.74815 152.90365 C 102.74815 153.36956 103.12585 153.74726 103.59176 153.74726 L 105.78384999999999 153.74726 C 106.24975999999998 153.74726 106.62745999999999 153.36956 106.62745999999999 152.90365 L 106.62745999999999 150.71156 C 106.62745999999999 150.24564999999998 106.24975999999998 149.86794999999998 105.78384999999999 149.86794999999998 L 103.59176 149.86794999999998 C 103.12585 149.86794999999998 102.74815 150.24564999999998 102.74815 150.71156 z M 136.62367 68.18975 C 136.62367 68.62715 136.97826 68.98174 137.41566 68.98174 L 139.27996000000002 68.98174 C 139.71736 68.98174 140.07195000000002 68.62715 140.07195000000002 68.18975 L 140.07195000000002 66.32545 C 140.07195000000002 65.88805 139.71736 65.53346 139.27996000000002 65.53346 L 137.41566 65.53346 C 136.97826 65.53346 136.62367 65.88805 136.62367 66.32545 z"
   stroke-linecap="round"
   id="path66" />
</g>
<g
   transform="matrix(1,0,0,1.0312849,250.5,270.28805)"
   id="IoJSXwzh9fRpv5LZJqQrg">
<path
   style="opacity:1;fill:#29e9f6;fill-opacity:0.45;fill-rule:nonzero;stroke:none;stroke-width:1;stroke-linecap:butt;stroke-linejoin:miter;stroke-miterlimit:4;stroke-dasharray:none;stroke-dashoffset:0"
   vector-effect="non-scaling-stroke"
   transform="translate(-76.8,-56)"
   d="M 0,0 H 0.00716 C 0.03302,0.04126 0.0589,0.08249 0.08483,0.1237 Z m 153.6,0 -0.20113,0.29331 C 153.46059,0.19566 153.52212,0.09789 153.58348,0 Z M 76.8,112 4.15626,6.06121 c 16.51729,22.1537 42.91323,36.50702 72.63906,36.50702 29.7978,0 56.24956,-14.4229 72.75885,-36.66806 z"
   stroke-linecap="round"
   id="path69" />
</g>
</svg>
